<svg version="1.1" id="Layer_1" xmlns="http://www.w3.org/2000/svg" xmlns:xlink="http://www.w3.org/1999/xlink" x="0px" y="0px"
	 width="100%" viewBox="0 0 50 50" enable-background="new 0 0 50 50" xml:space="preserve">
<path fill="#000000" opacity="1.000000" stroke="none" 
	d="
M14.000000,1.000000 
	C26.290358,1.000000 38.580715,1.000000 50.935539,1.000000 
	C50.935539,17.565422 50.935539,34.131130 50.935539,51.000000 
	C38.314049,51.000000 25.625681,51.000000 12.345293,50.545464 
	C11.835554,47.107716 12.316704,44.070076 11.918554,41.152428 
	C11.042043,34.729324 12.750969,30.433874 19.685932,29.002659 
	C22.370310,28.448664 24.892002,27.066612 27.459616,25.994289 
	C34.296623,23.138924 41.118309,20.246868 48.874485,16.978142 
	C39.980118,13.354670 32.077087,10.316253 24.339514,6.902781 
	C20.727884,5.309490 17.436523,2.990218 14.000000,1.000000 
z"/>
<path fill="#6A1B9A" opacity="1.000000" stroke="none" 
	d="
M13.600004,1.000000 
	C17.436523,2.990218 20.727884,5.309490 24.339514,6.902781 
	C32.077087,10.316253 39.980118,13.354670 48.874485,16.978142 
	C41.118309,20.246868 34.296623,23.138924 27.459616,25.994289 
	C24.892002,27.066612 22.370310,28.448664 19.685932,29.002659 
	C12.750969,30.433874 11.042043,34.729324 11.918554,41.152428 
	C12.316704,44.070076 11.835554,47.107716 11.876635,50.545464 
	C11.555555,51.000000 11.111111,51.000000 10.456518,50.545074 
	C10.164248,33.726765 10.082124,17.363382 10.000000,1.000000 
	C11.066669,1.000000 12.133339,1.000000 13.600004,1.000000 
z"/>
<path fill="#000000" opacity="1.000000" stroke="none" 
	d="
M9.508951,1.000000 
	C10.082124,17.363382 10.164248,33.726765 10.123186,50.545074 
	C7.021426,51.000000 4.042853,51.000000 1.037522,51.000000 
	C1.037522,34.333321 1.037522,17.666653 1.037522,1.000000 
	C3.722663,1.000000 6.370283,1.000000 9.508951,1.000000 
z"/>
</svg>