<svg version="1.1" id="Layer_1" xmlns="http://www.w3.org/2000/svg" xmlns:xlink="http://www.w3.org/1999/xlink" x="0px" y="0px"
	 width="100%" viewBox="0 0 50 50" enable-background="new 0 0 50 50" xml:space="preserve">
<path fill="#000000" opacity="1.000000" stroke="none" 
	d="
M25.239357,50.759354 
	C18.032797,51.000000 11.064302,50.924568 4.099144,51.043873 
	C1.877892,51.081921 0.877783,50.900005 0.912667,48.125404 
	C1.098261,33.363907 1.108261,18.597355 0.906559,3.836279 
	C0.867299,0.963163 2.007586,0.923851 4.137560,0.965683 
	C9.443856,1.069897 14.753572,1.000000 20.530956,1.000000 
	C22.452290,2.168850 23.256350,3.401502 21.736147,5.152892 
	C20.531837,6.540348 19.493629,8.073605 19.110619,9.920331 
	C18.449192,13.109478 19.026196,15.983506 21.871052,17.873404 
	C24.633951,19.708853 27.606356,19.647234 30.292994,17.696083 
	C33.044411,15.697886 33.581532,12.831961 32.776634,9.655454 
	C32.358490,8.005263 31.393549,6.634418 30.367786,5.317055 
	C29.330343,3.984693 28.864187,2.711869 30.752846,1.247194 
	C36.806046,1.000000 42.614174,1.087977 48.416969,0.950638 
	C50.357750,0.904704 51.093342,1.085557 51.071945,3.395415 
	C50.932110,18.489840 50.919617,33.587044 51.080143,48.681057 
	C51.106503,51.159664 50.123005,51.056896 48.341045,51.034504 
	C41.540756,50.949047 34.738750,51.000000 27.468693,51.000000 
	C25.447624,48.180813 26.175896,45.197765 26.332848,42.242775 
	C26.516159,38.791473 26.719923,35.332756 25.996454,31.884157 
	C25.228262,36.479511 25.477205,41.109657 25.840742,45.719154 
	C25.971390,47.375710 26.528898,48.982155 25.239357,50.759354 
z"/>
<path fill="#6A1B9A" opacity="1.000000" stroke="none" 
	d="
M30.545891,1.000000 
	C30.262598,3.187024 32.299477,3.888158 33.369801,4.742437 
	C37.450283,7.999271 36.502682,12.515422 35.541756,16.212818 
	C34.869865,18.798067 32.334476,21.689169 28.745956,21.964464 
	C24.231127,22.310820 19.837805,22.391420 17.075098,17.637041 
	C14.903281,13.899530 15.631519,7.063219 19.003992,4.099143 
	C19.877357,3.331541 20.840849,2.714369 21.198048,1.328188 
	C24.030594,1.000000 27.061186,1.000000 30.545891,1.000000 
z"/>
<path fill="#6A1B9A" opacity="1.000000" stroke="none" 
	d="
M25.333332,51.000000 
	C21.788315,43.134602 23.347803,34.875965 23.001003,26.774204 
	C22.909166,24.628767 22.976318,22.944078 26.026428,22.949524 
	C29.124922,22.955059 29.165806,24.740772 28.979939,26.825102 
	C28.283377,34.636368 30.909834,42.773842 26.851622,50.620789 
	C26.555555,51.000000 26.111111,51.000000 25.333332,51.000000 
z"/>
</svg>